<svg xmlns="http://www.w3.org/2000/svg" viewBox="0 0 512 512">
  <rect width="512" height="512" fill="#0f172a"/>
  <rect x="72" y="72" width="368" height="368" rx="96" fill="#111827"/>
  <rect x="108" y="108" width="296" height="296" rx="72" fill="#1f2937"/>
  <path d="M150 318c0-45 31-73 78-73 39 0 64-17 64-48 0-27-22-44-56-44-33 0-58 15-77 42l-44-31c26-39 68-61 125-61 72 0 122 38 122 95 0 58-38 86-89 96-33 7-50 23-50 46 0 21 17 35 44 35 26 0 45-10 62-30l42 33c-24 31-60 48-108 48-67 0-113-42-113-108z" fill="#f8fafc"/>
</svg>
